<?xml version="1.0" standalone="no"?>
<!DOCTYPE svg PUBLIC "-//W3C//DTD SVG 20010904//EN"
 "http://www.w3.org/TR/2001/REC-SVG-20010904/DTD/svg10.dtd">
<svg version="1.0" xmlns="http://www.w3.org/2000/svg"
 width="442.000000pt" height="442.000000pt" viewBox="0 0 442.000000 442.000000"
 preserveAspectRatio="xMidYMid meet">
<metadata>
Created by potrace 1.14, written by Peter Selinger 2001-2017
</metadata>
<g transform="translate(0.000000,442.000000) scale(0.100000,-0.100000)"
fill="#000000" stroke="none">
<path d="M2185 4241 c8 -17 19 -33 25 -36 24 -15 6 -25 -47 -25 -86 0 -186
-17 -302 -50 -106 -31 -189 -38 -235 -20 -46 17 -27 -7 22 -28 l47 -21 -40
-16 c-124 -52 -240 -125 -376 -238 -58 -48 -129 -128 -103 -115 113 54 127 50
73 -22 -62 -82 -88 -145 -98 -241 -4 -46 -7 -85 -5 -87 1 -2 10 13 19 32 21
44 34 54 27 21 -2 -14 -9 -25 -14 -25 -5 0 -6 -5 -3 -10 4 -6 -3 -29 -14 -51
-27 -50 -26 -57 1 -33 12 10 19 14 15 8 -8 -14 -34 -183 -41 -274 -4 -41 -1
-118 5 -170 7 -52 12 -116 13 -141 1 -25 8 -54 16 -65 14 -18 14 -18 -4 -4
-16 13 -20 12 -37 -9 -11 -13 -19 -31 -19 -40 1 -9 7 -1 15 17 14 32 29 40 40
22 4 -6 10 -8 14 -5 13 7 37 -25 64 -85 14 -30 41 -89 60 -130 65 -143 126
-175 332 -173 113 1 163 6 250 29 20 5 20 5 1 -10 -18 -15 -18 -16 -2 -16 10
0 14 -4 10 -12 -5 -7 -3 -8 6 -3 10 6 12 3 7 -11 -6 -15 -2 -14 14 5 l20 25
-5 -30 c-4 -16 -3 -22 0 -14 4 8 17 27 30 42 12 15 32 53 43 83 32 84 94 306
87 312 -3 3 -10 -16 -17 -41 -6 -26 -13 -45 -16 -43 -6 7 38 170 49 185 6 7
33 12 65 12 46 0 54 -3 49 -16 -4 -10 -2 -13 6 -8 7 5 9 0 6 -14 -4 -12 -2
-20 2 -17 4 3 13 -9 19 -27 16 -44 12 -60 -4 -18 -7 19 -14 28 -14 20 -2 -50
117 -339 174 -422 18 -26 36 -63 39 -83 4 -21 10 -35 12 -32 3 3 -1 30 -9 60
l-15 55 34 -14 c18 -8 43 -14 56 -15 234 -9 268 -9 268 0 0 6 8 11 18 11 9 0
24 5 32 11 13 9 12 10 -2 5 -10 -3 -18 -1 -18 3 0 5 -60 10 -134 10 -121 2
-174 5 -182 13 -1 2 73 3 164 3 148 0 175 3 233 23 78 27 123 67 156 138 22
50 54 177 68 277 3 26 9 47 13 47 4 0 21 -11 37 -24 29 -23 30 -28 29 -95 -1
-39 2 -69 6 -66 11 7 6 -22 -5 -32 -4 -4 -5 -2 0 6 5 9 4 12 -3 7 -14 -9 -15
-36 -3 -68 10 -27 9 -44 -2 -40 -4 1 -3 -6 3 -17 6 -12 7 -28 1 -43 -5 -13 -6
-31 -2 -39 4 -7 7 -20 5 -26 -1 -7 -2 -18 -3 -25 -2 -17 -14 -1 -18 24 -2 12
-9 28 -16 37 -10 12 -9 13 2 7 10 -7 12 -3 6 15 -5 20 -4 21 5 9 10 -13 11
-12 6 3 -3 10 -6 24 -7 30 -1 22 -21 -38 -25 -75 -2 -26 1 -40 12 -46 9 -5 17
-13 17 -17 3 -13 38 -14 42 -1 2 6 6 28 10 49 5 31 9 36 20 27 21 -18 38 -68
31 -95 -3 -13 -20 -32 -36 -40 -30 -15 -30 -15 -30 11 0 43 -7 24 -14 -38 -6
-56 -6 -57 16 -49 13 5 24 13 24 20 1 6 2 16 3 22 0 5 7 7 14 3 6 -4 9 -3 4 1
-4 5 -1 16 7 24 8 9 22 30 30 46 9 17 16 24 16 17 0 -7 5 -10 10 -7 7 4 6 14
-2 28 -9 19 -9 20 3 10 11 -9 14 -7 14 12 0 13 -4 20 -10 17 -5 -3 -5 1 2 9
19 23 -12 76 -48 84 -21 5 -29 12 -29 28 1 65 69 217 98 217 12 0 12 3 2 15
-7 8 -17 12 -24 9 -6 -3 -3 1 8 10 22 18 49 8 68 -27 28 -52 -1 -320 -57 -517
-66 -233 -94 -268 -162 -207 -13 11 -25 19 -27 16 -2 -2 -7 -25 -11 -51 l-7
-48 28 15 c16 8 37 15 46 15 35 0 75 49 101 122 42 118 83 294 102 433 22 155
16 216 -22 251 -25 23 -34 24 -81 6 -17 -6 -13 68 4 83 13 11 34 122 34 179 0
20 -12 64 -26 97 -14 34 -23 63 -20 66 3 3 12 -10 20 -28 l14 -34 -5 40 c-3
22 -11 65 -19 95 -7 30 -22 109 -34 174 -18 103 -28 134 -76 228 -55 106 -86
148 -153 198 -18 14 -34 33 -35 44 -2 12 -19 25 -49 36 -26 10 -69 38 -96 62
-91 80 -351 198 -514 232 -111 24 -187 55 -187 77 0 5 -5 9 -10 9 -6 0 -4 -13
5 -29z m560 -211 c3 -6 -1 -7 -9 -4 -18 7 -21 14 -7 14 6 0 13 -4 16 -10z
m-14 -57 c13 -16 12 -17 -3 -4 -17 13 -22 21 -14 21 2 0 10 -8 17 -17z m-46
-51 c-3 -3 -11 0 -18 7 -9 10 -8 11 6 5 10 -3 15 -9 12 -12z m-313 -223 c-14
-13 -100 -20 -107 -9 -4 7 3 9 22 5 16 -4 23 -3 16 2 -7 5 5 8 32 8 24 0 41
-3 37 -6z m338 -37 c43 -14 66 -18 71 -11 4 7 9 5 12 -5 5 -12 20 -16 59 -16
38 0 49 3 38 10 -9 6 -10 10 -3 10 7 0 21 -9 32 -21 11 -12 24 -18 30 -15 5 4
15 -4 21 -16 11 -22 10 -22 -4 -4 -9 11 -16 15 -16 8 0 -6 14 -21 30 -34 21
-15 29 -28 25 -42 -3 -12 -2 -15 1 -8 5 10 9 9 20 -5 7 -10 13 -22 14 -28 0
-5 -5 -3 -10 5 -6 9 -10 10 -10 3 0 -7 6 -16 14 -20 30 -18 63 -113 34 -98 -7
4 -6 1 3 -7 9 -7 15 -23 14 -36 -1 -13 4 -26 11 -30 18 -10 53 -92 47 -109 -3
-7 0 -13 7 -13 10 0 10 -3 1 -14 -9 -11 -8 -14 5 -12 13 1 20 -13 29 -51 12
-51 11 -53 -9 -54 -20 0 -20 -1 2 -9 12 -5 22 -18 22 -29 0 -15 -5 -19 -17
-14 -11 4 -14 3 -9 -5 4 -7 2 -10 -6 -7 -7 3 -92 13 -189 24 -149 15 -181 21
-204 39 -15 12 -33 22 -39 22 -6 -1 0 -7 13 -14 24 -13 23 -14 -25 -19 -27 -4
-80 -9 -119 -12 -38 -4 -134 -19 -213 -35 -212 -44 -242 -45 -467 -20 -214 24
-323 23 -485 -4 -47 -8 -109 -18 -137 -21 -50 -6 -53 -5 -53 15 0 11 4 19 8
16 4 -2 8 3 9 12 3 46 19 101 39 140 12 23 17 39 11 36 -7 -4 1 6 16 23 15 16
32 46 38 66 9 33 38 55 62 49 5 -1 6 2 3 7 -4 5 -2 12 4 16 5 3 10 -3 10 -14
0 -39 19 -31 22 10 4 52 23 62 32 18 6 -34 32 -69 49 -69 6 0 3 8 -6 18 -24
27 -20 121 4 106 5 -3 9 2 9 11 0 9 5 13 10 10 6 -3 10 -1 10 6 0 7 2 10 5 7
3 -3 -2 -33 -11 -67 -8 -35 -13 -65 -11 -68 3 -2 8 11 12 29 4 18 16 50 26 71
21 41 126 129 143 120 6 -3 8 -3 4 2 -4 4 4 16 18 27 21 17 27 18 42 6 15 -11
16 -11 4 3 -11 14 -7 20 25 40 41 24 66 33 58 19 -3 -5 14 2 37 14 40 22 135
36 261 38 17 1 24 4 17 8 -9 5 -6 10 9 15 12 4 28 2 36 -5 10 -8 34 -9 92 -1
157 22 255 17 363 -17z m-1526 -486 c-3 -15 -8 -25 -11 -23 -2 3 -1 17 3 31 3
15 8 25 11 23 2 -3 1 -17 -3 -31z m1632 -218 c4 -7 3 -8 -4 -4 -7 4 -12 2 -12
-3 0 -6 6 -11 13 -12 8 0 8 -2 -2 -6 -11 -5 -11 -7 0 -14 11 -7 11 -9 1 -9 -7
0 -10 -4 -7 -10 9 -15 25 -12 25 5 0 8 9 15 20 15 11 0 20 -5 20 -12 0 -6 3
-8 7 -4 4 4 -3 16 -17 27 l-25 19 40 -13 c33 -12 40 -19 43 -43 l2 -29 -15 30
c-12 23 -13 25 -7 5 8 -28 9 -106 2 -113 -3 -3 -40 -8 -82 -11 -70 -5 -76 -4
-71 12 5 14 3 15 -8 5 -7 -7 -38 -13 -69 -13 -31 0 -62 -6 -69 -12 -11 -11
-12 -10 -6 1 5 9 3 12 -6 9 -8 -3 -27 1 -44 10 l-30 14 23 -21 c27 -26 26 -25
5 -42 -16 -12 -17 -12 -6 1 10 13 8 18 -9 29 -11 7 -17 8 -14 3 3 -6 -8 -9
-27 -7 -17 1 -40 -2 -49 -7 -16 -8 -18 -3 -18 34 0 32 3 39 10 28 5 -8 10 -10
10 -5 0 6 9 11 19 11 11 0 17 -4 14 -9 -3 -5 3 -4 14 1 11 6 25 7 33 2 10 -6
21 -3 33 8 16 14 20 14 27 2 5 -8 12 -11 16 -7 13 13 -29 37 -44 25 -9 -8 -11
-7 -6 6 4 11 13 14 33 10 l26 -7 -23 22 c-12 12 -19 27 -16 33 5 7 2 9 -7 6
-8 -3 -23 -2 -34 3 -18 7 -17 8 5 7 14 0 33 3 43 7 13 5 17 3 15 -6 -2 -8 -7
-17 -12 -20 -4 -4 -3 -10 3 -13 6 -4 11 -2 11 3 0 6 5 11 11 11 5 0 7 -5 3
-12 -4 -7 -3 -8 4 -4 7 4 12 1 12 -8 0 -20 14 -20 30 -1 16 19 34 20 27 1 -4
-10 -1 -13 8 -10 16 7 9 34 -9 34 -7 0 -17 -5 -23 -11 -9 -9 -18 -6 -37 9
l-26 20 39 -5 c23 -3 41 -1 45 6 5 7 -6 11 -31 12 -21 1 -49 5 -63 9 -22 7
-20 8 15 9 22 0 58 -4 80 -9 27 -6 43 -6 50 2 7 7 7 9 0 6 -5 -3 -19 -2 -30 3
-13 5 3 8 47 8 40 1 70 -4 74 -11z m108 -6 c2 -4 -4 -8 -15 -8 -10 0 -19 4
-19 8 0 4 6 8 14 8 8 0 17 -4 20 -8z m-386 -9 c-10 -2 -26 -2 -35 0 -10 3 -2
5 17 5 19 0 27 -2 18 -5z m417 -13 c-3 -5 0 -12 6 -16 7 -4 9 -3 5 4 -12 19
13 23 44 7 18 -9 28 -21 24 -27 -4 -7 -3 -8 4 -4 15 9 40 -33 40 -66 -1 -28
-16 -34 -113 -40 -35 -2 -40 0 -37 17 5 32 8 72 10 111 1 21 6 33 12 29 6 -4
8 -10 5 -15z m243 8 c18 -18 15 -23 -14 -26 -33 -3 -45 5 -37 23 6 18 34 20
51 3z m-735 -5 c-13 -3 -25 -14 -28 -26 -2 -12 -6 -31 -8 -42 -3 -14 -5 -12
-6 8 -1 40 16 67 42 66 l22 -2 -22 -4z m-1218 -43 c-35 -28 -55 -31 -55 -9 0
11 56 38 79 39 8 0 -3 -13 -24 -30z m724 5 c25 -10 39 -21 33 -23 -7 -2 -9 -9
-6 -14 4 -7 2 -8 -4 -4 -6 4 -20 3 -30 -3 -11 -6 -24 -6 -33 0 -12 7 -12 9 1
9 13 0 13 2 1 9 -9 6 -19 5 -26 -2 -10 -9 -6 -15 16 -24 21 -9 29 -19 29 -37
0 -14 -4 -28 -10 -31 -5 -3 -10 1 -10 9 0 21 -17 29 -39 16 -13 -6 -28 -7 -44
-1 -16 6 -28 6 -36 -2 -8 -8 -11 -8 -11 1 0 7 -13 12 -30 12 -17 0 -30 -5 -30
-12 0 -9 -4 -8 -10 2 -9 13 -11 13 -21 0 -8 -12 -9 -8 -4 15 6 28 5 29 -8 10
-8 -11 -16 -29 -19 -40 -3 -14 -11 -19 -26 -18 -14 2 -22 -3 -22 -12 0 -8 -4
-15 -9 -15 -6 0 -8 9 -6 20 4 20 -5 26 -19 13 -4 -5 -29 -8 -54 -9 -26 0 -38
2 -27 4 l20 5 -20 9 c-17 7 -16 8 5 3 14 -2 39 -1 55 3 31 9 47 32 21 32 -9 0
-19 7 -22 15 -4 8 -10 12 -15 9 -16 -10 -9 -22 17 -28 36 -9 25 -18 -13 -10
-24 5 -29 10 -26 25 3 10 -4 31 -16 47 -11 16 -17 33 -13 37 4 4 99 5 212 3
172 -4 212 -7 249 -23z m-483 -7 c-3 -13 -6 -51 -6 -86 0 -61 -1 -62 -21 -51
-15 8 -19 8 -15 0 11 -18 -2 -13 -24 9 -22 22 -18 25 30 33 17 3 14 5 -12 6
-32 1 -38 4 -38 24 0 42 -14 51 -49 33 -17 -9 -31 -14 -31 -12 0 13 123 64
159 65 9 1 11 -6 7 -21z m867 10 c-11 -19 -12 -38 -2 -38 5 0 9 7 9 15 0 8 9
15 19 15 11 0 22 6 24 13 3 6 6 2 6 -11 1 -19 -3 -22 -20 -17 -19 6 -20 5 -8
-8 8 -8 17 -13 21 -11 4 3 6 -17 4 -43 l-3 -48 -54 -6 c-30 -3 -57 -4 -62 -2
-4 2 -5 25 -2 51 3 38 11 52 37 75 36 30 43 33 31 15z m933 3 c-4 -5 -2 -11 3
-13 4 -1 12 -14 15 -28 7 -24 6 -23 -13 4 -17 26 -20 46 -5 46 3 0 3 -4 0 -9z
m-1766 -42 c0 -6 -4 -7 -10 -4 -5 3 -10 11 -10 16 0 6 5 7 10 4 6 -3 10 -11
10 -16z m763 6 c-3 -9 -8 -14 -10 -11 -3 3 -2 9 2 15 9 16 15 13 8 -4z m247
-25 c0 -5 -4 -10 -10 -10 -5 0 -10 5 -10 10 0 6 5 10 10 10 6 0 10 -4 10 -10z
m-1319 -10 c5 0 9 -4 9 -10 0 -16 -26 -12 -41 7 -12 15 -12 16 4 10 10 -4 23
-7 28 -7z m-42 -59 c1 -35 -5 -22 -12 24 -5 28 -4 34 3 20 5 -11 9 -31 9 -44z
m59 17 c6 -56 35 -193 57 -270 29 -98 47 -140 74 -173 15 -19 15 -19 -2 -5
-10 7 -27 30 -37 49 -22 44 -71 203 -77 251 -3 19 -10 61 -17 92 -7 32 -11 60
-8 63 8 7 9 7 10 -7z m664 -14 c6 -4 14 0 19 7 5 8 9 9 9 3 0 -6 -11 -21 -24
-33 l-25 -23 6 22 c4 16 3 21 -5 16 -7 -4 -12 -13 -12 -21 0 -9 -11 -13 -32
-12 -26 2 -34 7 -36 24 -2 14 3 23 15 25 23 5 71 0 85 -8z m1235 -16 c-3 -7
-5 -2 -5 12 0 14 2 19 5 13 2 -7 2 -19 0 -25z m-10 -65 c-3 -10 -5 -4 -5 12 0
17 2 24 5 18 2 -7 2 -21 0 -30z m-1270 21 c-3 -3 -12 -4 -19 -1 -8 3 -5 6 6 6
11 1 17 -2 13 -5z m210 -56 c-3 -7 -5 -2 -5 12 0 14 2 19 5 13 2 -7 2 -19 0
-25z m1050 -30 c-3 -7 -5 -2 -5 12 0 14 2 19 5 13 2 -7 2 -19 0 -25z m-1060
-10 c-3 -8 -6 -5 -6 6 -1 11 2 17 5 13 3 -3 4 -12 1 -19z m-22 -78 c-9 -28
-19 -50 -21 -48 -2 2 4 27 13 56 9 28 19 50 21 47 2 -2 -4 -27 -13 -55z m265
25 c0 -5 -5 -3 -10 5 -5 8 -10 20 -10 25 0 6 5 3 10 -5 5 -8 10 -19 10 -25z
m807 13 c-3 -8 -6 -5 -6 6 -1 11 2 17 5 13 3 -3 4 -12 1 -19z m-10 -40 c-3 -8
-6 -5 -6 6 -1 11 2 17 5 13 3 -3 4 -12 1 -19z m-774 -30 c9 -31 2 -33 -11 -3
-6 14 -8 25 -3 25 5 0 11 -10 14 -22z m-329 -77 c-9 -23 -18 -40 -20 -38 -2 2
4 22 13 45 9 23 18 40 20 38 2 -2 -4 -22 -13 -45z m-44 -90 c-29 -42 -34 -39
-8 4 11 20 23 34 25 31 3 -3 -5 -19 -17 -35z m471 -8 c13 -16 12 -17 -3 -4
-10 7 -18 15 -18 17 0 8 8 3 21 -13z m774 -23 c3 -5 1 -10 -4 -10 -6 0 -11 5
-11 10 0 6 2 10 4 10 3 0 8 -4 11 -10z m-1241 -25 c-9 -14 -18 -25 -21 -25 -5
0 5 18 20 38 17 22 18 13 1 -13z m1266 -379 c-36 -11 -41 -7 -34 21 6 20 7 20
35 5 l29 -17 -30 -9z"/>
<path d="M3128 3003 c6 -2 18 -2 25 0 6 3 1 5 -13 5 -14 0 -19 -2 -12 -5z"/>
<path d="M2881 2874 c0 -11 3 -14 6 -6 3 7 2 16 -1 19 -3 4 -6 -2 -5 -13z"/>
<path d="M2470 2785 c-7 -8 -9 -15 -6 -15 4 0 14 7 22 15 9 8 11 15 6 15 -5 0
-15 -7 -22 -15z"/>
<path d="M2986 2917 c3 -10 9 -15 12 -12 3 3 0 11 -7 18 -10 9 -11 8 -5 -6z"/>
<path d="M1525 2900 c27 -12 43 -12 25 0 -8 5 -22 9 -30 9 -10 0 -8 -3 5 -9z"/>
<path d="M1830 2901 c0 -6 4 -12 8 -15 5 -3 9 1 9 9 0 8 -4 15 -9 15 -4 0 -8
-4 -8 -9z"/>
<path d="M1943 2883 c9 -2 15 -9 12 -14 -8 -11 6 -12 23 0 11 7 10 10 -3 15
-9 3 -24 5 -33 5 -15 -1 -15 -2 1 -6z"/>
<path d="M1854 2862 c4 -7 2 -12 -3 -12 -6 0 -11 -8 -12 -17 0 -15 -2 -15 -9
2 l-9 20 0 -20 c-1 -15 -3 -17 -10 -6 -5 8 -11 9 -15 3 -10 -16 4 -20 59 -17
63 3 64 3 42 16 -13 8 -22 7 -33 -1 -16 -14 -19 1 -3 17 8 8 7 13 -2 18 -8 5
-10 4 -5 -3z"/>
<path d="M1663 2822 c-11 -15 -13 -15 -23 -2 -10 13 -11 13 -7 -2 3 -9 1 -19
-6 -21 -7 -2 -8 -8 -4 -13 4 -5 12 -2 16 5 5 7 13 11 19 7 6 -3 14 3 17 15 9
27 2 33 -12 11z"/>
<path d="M1731 2824 c0 -11 3 -14 6 -6 3 7 2 16 -1 19 -3 4 -6 -2 -5 -13z"/>
<path d="M1758 2823 c7 -3 16 -2 19 1 4 3 -2 6 -13 5 -11 0 -14 -3 -6 -6z"/>
<path d="M2319 2878 c-6 -21 -6 -39 1 -43 5 -3 7 3 6 12 -2 10 2 21 8 25 8 5
7 8 -1 8 -7 0 -13 -1 -14 -2z"/>
<path d="M2365 2850 c-4 -6 -11 -7 -17 -4 -7 4 -8 2 -4 -5 6 -9 11 -9 22 0 14
11 18 19 10 19 -3 0 -8 -5 -11 -10z"/>
<path d="M2111 2688 c0 -9 -4 -25 -7 -35 -5 -17 -5 -17 6 0 6 10 9 25 7 35 -4
15 -5 15 -6 0z"/>
<path d="M3383 2633 c-22 -8 -93 -105 -93 -126 0 -20 0 -21 15 -1 8 10 15 15
16 9 1 -5 4 3 8 19 4 18 15 32 30 38 20 7 22 6 12 -6 -10 -12 -8 -13 10 -9 22
6 22 6 16 -93 -4 -63 -3 -86 3 -65 4 19 11 76 15 126 6 93 -1 119 -32 108z"/>
<path d="M1130 2532 c0 -49 33 -193 51 -222 13 -21 3 84 -11 110 -8 16 -8 18
4 14 15 -6 46 -63 46 -85 0 -8 5 -5 14 6 12 17 14 16 20 -16 4 -23 -1 -53 -15
-93 -20 -59 -17 -81 14 -81 7 0 12 -13 13 -29 l1 -28 -31 34 c-17 19 -26 27
-20 19 7 -9 25 -36 40 -62 l29 -45 -3 115 c-2 64 -10 140 -19 171 -9 35 -13
72 -9 102 6 44 5 49 -16 58 -13 5 -34 21 -47 35 -13 14 -32 30 -42 36 -17 9
-19 5 -19 -39z"/>
<path d="M3367 2502 c7 -47 10 -49 15 -14 2 16 -2 34 -8 40 -10 9 -11 4 -7
-26z"/>
<path d="M1112 2455 c0 -16 2 -22 5 -12 2 9 2 23 0 30 -3 6 -5 -1 -5 -18z"/>
<path d="M1122 2405 c0 -11 8 -51 18 -90 10 -38 18 -61 18 -50 0 11 -8 52 -18
90 -10 39 -18 61 -18 50z"/>
<path d="M3130 2246 c0 -2 7 -7 16 -10 8 -3 12 -2 9 4 -6 10 -25 14 -25 6z"/>
<path d="M1162 2220 c0 -14 2 -19 5 -12 2 6 2 18 0 25 -3 6 -5 1 -5 -13z"/>
<path d="M1808 2223 c7 -3 16 -2 19 1 4 3 -2 6 -13 5 -11 0 -14 -3 -6 -6z"/>
<path d="M1578 2203 c7 -3 16 -2 19 1 4 3 -2 6 -13 5 -11 0 -14 -3 -6 -6z"/>
<path d="M1688 2203 c7 -3 16 -2 19 1 4 3 -2 6 -13 5 -11 0 -14 -3 -6 -6z"/>
<path d="M3146 2183 c-6 -14 -5 -15 5 -6 7 7 10 15 7 18 -3 3 -9 -2 -12 -12z"/>
<path d="M1171 2177 c-1 -10 5 -33 13 -52 8 -18 17 -60 21 -92 3 -32 13 -77
21 -100 17 -46 74 -103 103 -103 15 0 23 -18 41 -97 39 -172 104 -316 173
-385 l26 -26 -165 -77 c-194 -90 -230 -103 -434 -156 -85 -23 -185 -54 -222
-70 -37 -16 -138 -48 -225 -70 -212 -54 -294 -83 -360 -125 -60 -38 -163 -131
-163 -146 0 -6 26 14 58 43 119 109 207 150 437 204 60 14 154 41 210 60 131
44 385 118 410 120 11 0 45 13 75 28 82 40 352 157 362 157 42 0 -52 -50 -227
-121 -101 -41 -182 -92 -368 -236 -82 -63 -150 -113 -152 -111 -4 4 252 230
287 252 46 30 27 29 -55 -2 -41 -16 -130 -46 -198 -67 -68 -21 -159 -55 -202
-77 -43 -21 -82 -36 -86 -33 -5 2 -51 -13 -102 -34 -226 -91 -290 -166 -344
-401 -30 -130 -35 -140 -29 -60 4 41 17 125 29 185 36 169 37 176 22 134 -6
-20 -18 -43 -25 -52 -7 -8 -33 -52 -57 -98 l-45 -82 0 -244 0 -243 2210 0
2210 0 0 344 0 343 -68 32 c-90 41 -185 73 -359 121 -79 22 -144 40 -146 40
-11 0 -1 -30 12 -35 13 -5 13 -7 1 -15 -9 -6 -28 0 -57 16 -23 14 -48 22 -54
18 -7 -4 -9 -3 -6 3 4 6 -5 15 -20 22 -19 9 -28 9 -33 1 -5 -7 -9 -3 -13 10
-4 17 -11 21 -26 17 -13 -3 -19 -1 -14 6 4 6 -2 8 -15 5 -12 -4 -25 -2 -28 3
-3 5 -12 9 -19 9 -15 0 -39 17 -77 53 -11 10 -21 17 -22 15 -2 -1 -18 -25 -36
-52 -20 -29 -36 -44 -38 -37 -2 7 -1 16 4 20 5 3 11 34 12 67 4 60 2 63 -35
105 -35 39 -36 42 -13 36 69 -18 67 -15 -5 12 -44 15 -106 40 -138 55 -33 14
-78 31 -100 36 -23 6 -49 13 -58 16 -9 2 -19 -2 -23 -11 -4 -12 13 -25 70 -52
92 -44 108 -66 102 -133 -11 -107 -100 -236 -264 -382 -150 -132 -271 -206
-455 -278 -113 -44 -165 -58 -155 -41 5 7 1 8 -10 4 -12 -4 -15 -3 -10 5 5 8
1 10 -11 5 -16 -6 -16 -4 2 16 17 19 21 20 23 7 4 -18 20 -20 41 -7 9 6 10 11
2 15 -6 4 -8 13 -4 19 4 7 0 7 -10 -1 -9 -8 -20 -11 -26 -8 -5 4 -16 0 -24 -8
-8 -8 -18 -12 -22 -8 -5 4 -5 2 -1 -5 3 -6 -4 -19 -16 -28 -20 -14 -20 -16 -4
-13 10 2 21 -2 23 -8 7 -21 -146 -48 -272 -49 -102 0 -130 4 -185 24 -76 28
-121 52 -115 62 3 4 -2 10 -11 13 -10 4 -13 2 -8 -7 4 -6 -10 4 -30 23 -48 45
-95 142 -106 216 -13 94 13 278 54 374 l13 33 16 -49 c9 -27 27 -96 41 -154
49 -200 147 -513 154 -492 2 6 -19 84 -47 174 -27 90 -66 222 -86 293 -20 72
-61 207 -91 301 -58 183 -64 215 -39 194 8 -7 12 -17 8 -24 -3 -6 -2 -8 2 -3
11 10 56 -33 48 -46 -3 -6 -1 -7 6 -3 14 9 43 -12 35 -25 -3 -5 -2 -9 3 -8 22
4 24 -3 7 -23 -18 -23 -18 -23 1 -6 17 16 19 16 32 0 8 -9 11 -11 7 -3 -5 10
-3 12 5 7 7 -5 10 -14 7 -21 -7 -20 5 -26 22 -12 13 9 14 9 8 0 -5 -9 -1 -13
11 -13 15 0 15 -2 3 -9 -8 -6 -18 -7 -24 -4 -5 3 -6 1 -2 -5 4 -7 1 -12 -6
-12 -10 0 -9 -3 2 -9 8 -6 18 -7 23 -4 5 3 15 -4 23 -16 16 -23 39 -29 31 -8
-2 6 -10 11 -16 10 -6 -2 -11 0 -12 5 0 4 -2 15 -4 25 -2 11 1 16 8 14 7 -3
11 -11 9 -18 -2 -8 0 -11 3 -7 4 4 16 -3 27 -15 11 -12 16 -15 12 -7 -6 13 -5
13 7 2 12 -11 11 -15 -5 -28 -11 -8 -15 -14 -9 -14 7 0 15 5 18 10 3 6 14 10
23 10 13 0 14 -2 4 -9 -10 -6 -6 -11 17 -19 17 -6 31 -8 31 -5 0 3 8 -1 18
-10 9 -8 30 -19 46 -23 l29 -7 -29 -13 c-21 -10 -23 -12 -6 -9 12 3 32 7 45
10 12 3 16 2 9 -1 -6 -3 -10 -9 -7 -14 3 -4 -5 -6 -17 -3 -22 4 -21 4 2 -10
25 -14 56 -4 44 14 -3 5 3 9 12 9 16 0 16 -1 -1 -20 -15 -17 -16 -20 -3 -20 9
0 21 7 28 15 7 8 27 14 44 14 24 -1 26 -3 8 -6 -12 -2 -20 -8 -17 -13 3 -5 -3
-7 -13 -5 -9 1 -25 -2 -33 -9 -12 -8 9 -11 95 -11 61 0 117 4 124 8 7 5 12 4
12 -2 0 -8 6 -7 19 1 15 9 23 9 35 -1 8 -7 20 -10 26 -6 5 3 10 0 10 -7 1 -8
6 -6 15 6 18 24 13 31 -13 17 -14 -7 -24 -7 -37 3 -20 14 -29 46 -14 46 6 0 9
-6 7 -12 -2 -7 1 -14 6 -15 5 -1 12 -6 16 -12 4 -8 13 -4 26 10 19 22 19 22
-4 17 -12 -4 -20 -2 -17 2 3 5 -1 11 -7 14 -7 3 1 3 17 0 19 -4 25 -2 17 3 -9
7 -5 13 15 21 23 10 25 10 13 0 -18 -15 -23 -61 -6 -55 6 3 10 11 8 18 -3 11
-1 11 9 2 9 -9 9 -15 -3 -26 -8 -8 -13 -29 -12 -48 2 -25 -3 -39 -19 -52 -20
-17 -20 -18 -2 -12 11 4 26 8 32 8 8 0 11 12 9 31 -2 28 17 86 30 86 2 0 -3
-15 -12 -32 -14 -27 -14 -31 -2 -21 8 7 17 10 21 7 8 -9 1 61 -8 76 -9 15 13
30 33 22 13 -4 13 -7 -1 -17 -9 -6 -13 -16 -9 -22 4 -6 17 -1 32 15 14 13 19
22 12 18 -7 -4 -15 -1 -18 8 -3 9 -10 14 -14 11 -5 -3 -12 0 -16 6 -4 8 3 9
23 5 25 -6 31 -3 36 13 3 12 1 21 -4 21 -5 0 -9 -4 -9 -9 0 -5 -12 -11 -27
-13 -17 -2 -27 -8 -25 -17 2 -9 -3 -11 -13 -7 -9 3 -13 2 -10 -4 3 -6 1 -10
-5 -10 -21 0 -5 23 28 40 17 10 38 22 45 29 8 6 18 7 22 3 5 -4 5 -2 2 4 -9
16 16 35 32 25 10 -6 9 -10 -3 -14 -9 -4 -16 -12 -16 -19 0 -9 3 -9 8 -2 4 6
16 14 27 18 20 8 20 8 -1 18 -20 9 -21 12 -6 29 8 10 19 16 23 13 5 -3 14 4
20 15 7 10 18 17 26 14 7 -3 10 -10 6 -16 -4 -6 -1 -7 8 -1 14 9 20 11 41 13
9 1 9 4 0 13 -8 8 -15 8 -24 0 -9 -7 -19 -7 -28 -2 -8 6 -13 10 -10 11 55 10
73 17 67 27 -3 4 1 16 9 27 8 10 14 16 14 14 0 -3 21 14 47 38 26 23 54 42 62
40 9 -1 16 3 16 9 0 14 106 120 117 116 5 -1 7 2 3 8 -3 5 1 20 9 32 9 12 16
27 16 33 0 5 -11 -7 -24 -29 -37 -59 -91 -110 -216 -206 -63 -48 -140 -109
-170 -137 -63 -58 -168 -133 -184 -133 -6 1 2 8 17 16 16 9 27 18 24 21 -3 2
-14 0 -25 -6 -31 -17 -102 -30 -108 -20 -3 5 -11 9 -17 9 -7 0 -6 -4 3 -11 12
-9 11 -9 -5 -4 -11 4 -64 9 -117 9 -72 2 -99 -1 -102 -11 -3 -7 -11 -13 -18
-13 -9 0 -9 3 2 10 11 8 0 9 -37 6 -49 -4 -79 6 -51 17 9 4 10 6 1 6 -6 1 -15
-3 -18 -9 -3 -5 -11 -10 -16 -10 -6 0 -7 4 -4 10 3 5 0 7 -9 4 -8 -3 -25 0
-38 7 -22 12 -22 11 -8 -7 15 -18 14 -18 -10 -2 -14 9 -24 22 -22 28 1 6 -2 9
-8 5 -14 -9 -42 14 -33 28 3 6 1 7 -6 3 -15 -9 -73 32 -65 46 4 6 2 8 -3 5
-15 -10 -179 119 -242 189 -86 98 -157 273 -187 462 -5 29 -10 39 -15 30 -7
-10 -16 -9 -46 7 -50 27 -71 67 -83 156 -9 72 -48 202 -49 166z m1589 -961 c0
-2 -9 -6 -20 -9 -11 -3 -18 -1 -14 4 5 9 34 13 34 5z m550 -65 c55 -37 100
-91 100 -120 0 -14 -2 -14 -10 -1 -9 13 -10 13 -10 0 -1 -12 -3 -11 -11 3 -5
9 -7 23 -3 30 5 7 0 5 -11 -3 -17 -14 -18 -14 -6 7 11 21 10 22 -13 13 -21 -8
-24 -6 -19 7 5 12 1 14 -17 8 -17 -5 -21 -4 -15 6 6 9 3 11 -8 6 -9 -3 -16 -3
-16 1 2 14 -13 52 -20 49 -3 -2 -19 9 -35 25 l-30 27 35 -10 c19 -6 59 -28 89
-48z m-1935 -139 c-55 -53 -149 -149 -210 -212 -121 -127 -121 -120 0 21 69
79 290 289 305 289 3 -1 -40 -44 -95 -98z m425 94 c0 -2 -7 -7 -16 -10 -8 -3
-12 -2 -9 4 6 10 25 14 25 6z m708 -141 c-3 -3 -9 2 -12 12 -6 14 -5 15 5 6 7
-7 10 -15 7 -18z m-199 -24 c12 -8 9 -11 -12 -16 -14 -4 -32 -5 -39 -2 -7 3 1
6 17 7 26 1 27 3 10 10 -13 6 -15 9 -5 9 8 0 22 -3 29 -8z m-86 -18 c-7 -2
-21 -2 -30 0 -10 3 -4 5 12 5 17 0 24 -2 18 -5z m-1687 -48 c-11 -8 -24 -15
-30 -15 -5 0 -1 7 10 15 10 8 24 14 29 14 6 0 1 -6 -9 -14z m1790 -523 c-4 -3
-14 2 -24 12 -16 18 -16 18 6 6 13 -6 21 -14 18 -18z"/>
<path d="M2024 2173 c3 -3 -5 -14 -19 -24 -20 -17 -22 -24 -14 -51 9 -34 27
-50 43 -41 5 3 6 1 2 -5 -4 -7 -3 -12 3 -12 5 0 14 8 20 18 9 16 11 16 40 -1
17 -10 31 -14 31 -8 0 5 -8 12 -17 14 -13 3 -11 5 6 6 19 1 21 4 12 15 -9 11
-8 15 5 20 23 9 24 8 17 -11 -5 -12 -3 -14 8 -8 11 7 12 6 3 -6 -9 -13 -10
-20 -6 -56 3 -21 62 -12 81 13 10 13 29 25 42 28 13 2 33 7 44 11 16 6 17 5 5
-4 -22 -15 5 -14 32 2 32 18 52 37 38 37 -6 0 -8 5 -4 12 4 7 3 8 -4 4 -7 -4
-12 -2 -12 3 0 6 -5 11 -11 11 -5 0 -8 -4 -5 -9 4 -5 -7 -4 -23 2 -22 8 -36 8
-56 -1 -15 -7 -24 -8 -20 -2 3 5 1 10 -5 10 -6 0 -8 5 -4 11 4 8 0 8 -15 0
-23 -13 -29 -23 -8 -15 8 3 14 -2 14 -10 0 -11 -6 -12 -24 -5 -33 12 -36 11
-21 -5 7 -8 16 -12 21 -9 4 2 7 0 7 -5 0 -6 -11 -9 -25 -8 -14 0 -25 4 -25 8
0 9 -41 23 -59 19 -8 -1 -10 2 -5 11 4 7 3 10 -1 5 -5 -4 -18 1 -29 12 -18 16
-77 39 -62 24z m23 -33 c1 -16 -1 -17 -12 -7 -7 6 -11 15 -8 20 8 13 19 7 20
-13z m43 -5 c7 -8 9 -15 4 -15 -5 0 -2 -5 6 -10 13 -8 12 -10 -4 -10 -13 0
-16 5 -12 16 5 13 3 14 -7 6 -10 -8 -13 -6 -14 9 -2 23 10 25 27 4z m295 -35
c-3 -5 -14 -10 -23 -9 -14 0 -13 2 3 9 27 11 27 11 20 0z m-185 -65 c0 -5 -5
-3 -10 5 -5 8 -10 20 -10 25 0 6 5 3 10 -5 5 -8 10 -19 10 -25z"/>
<path d="M1923 2135 c0 -22 2 -30 4 -17 2 12 2 30 0 40 -3 9 -5 -1 -4 -23z"/>
<path d="M2273 2153 c0 -7 4 -13 9 -13 4 0 8 5 8 11 0 6 7 8 16 5 8 -3 12 -2
9 3 -8 14 -42 9 -42 -6z"/>
<path d="M2345 2150 c-3 -5 -2 -10 4 -10 5 0 13 5 16 10 3 6 2 10 -4 10 -5 0
-13 -4 -16 -10z"/>
<path d="M2446 2084 c-5 -17 -12 -24 -21 -20 -9 3 -12 0 -9 -8 3 -8 0 -17 -7
-22 -8 -5 -10 -3 -4 7 7 11 6 12 -6 2 -8 -6 -27 -10 -41 -9 -15 2 -25 -1 -22
-5 9 -15 -24 -10 -40 7 -14 14 -16 14 -16 0 0 -34 125 -38 145 -5 4 5 12 6 18
3 7 -4 9 -4 5 0 -3 4 0 23 8 42 8 19 10 34 5 34 -5 0 -12 -12 -15 -26z"/>
<path d="M1958 2041 c23 -22 42 -31 65 -30 39 1 74 13 61 22 -13 8 -56 3 -73
-8 -9 -5 -12 -4 -7 3 5 9 -19 23 -44 27 -3 0 -12 4 -20 9 -8 4 0 -6 18 -23z
m27 -9 c-3 -3 -11 0 -18 7 -9 10 -8 11 6 5 10 -3 15 -9 12 -12z"/>
<path d="M3152 1835 c0 -16 2 -22 5 -12 2 9 2 23 0 30 -3 6 -5 -1 -5 -18z"/>
<path d="M3136 1764 c-4 -20 -5 -38 -3 -40 3 -3 8 11 11 32 4 20 5 38 3 40 -3
3 -8 -11 -11 -32z"/>
<path d="M2219 1763 c-1 -5 -1 -12 0 -16 1 -5 -3 -6 -9 -2 -20 12 -32 -7 -13
-21 15 -12 13 -12 -17 0 -30 12 -38 12 -54 0 -11 -8 -24 -10 -30 -5 -19 15
-59 24 -52 12 4 -6 17 -11 29 -11 15 0 18 -3 10 -11 -8 -8 -18 -6 -38 7 l-28
18 12 -23 c12 -21 11 -22 -9 -11 -17 9 -26 7 -49 -9 -15 -11 -52 -30 -82 -41
-30 -12 -56 -23 -58 -25 -1 -2 19 -3 45 -3 51 1 79 -3 90 -15 4 -4 17 -7 28
-6 21 0 21 1 1 8 -17 7 -16 9 13 15 35 8 39 15 20 34 -10 10 -5 11 22 6 26 -4
31 -3 20 5 -12 9 -10 11 12 11 15 0 30 -4 33 -10 3 -5 23 -10 43 -10 29 0 34
-3 22 -11 -11 -8 -8 -9 13 -4 17 3 26 2 23 -4 -3 -5 2 -8 11 -7 9 2 19 8 21
14 2 7 8 12 13 12 6 0 7 -4 4 -10 -3 -5 -2 -10 3 -10 6 0 12 7 16 15 6 17 52
12 71 -8 7 -7 6 -8 -1 -4 -7 4 -14 -3 -18 -16 -3 -12 -7 -24 -8 -27 -2 -3 9
-5 24 -5 15 -1 31 -5 35 -9 4 -4 1 -7 -7 -5 -8 2 -26 -3 -40 -11 -14 -7 -26
-13 -27 -12 -11 8 -63 0 -63 -9 0 -14 77 -4 96 12 7 5 16 8 21 7 11 -4 90 31
126 55 23 16 39 18 80 14 35 -5 47 -3 37 3 -8 5 -25 10 -37 10 -12 0 -24 4
-27 9 -3 5 -15 11 -26 14 -11 3 -18 1 -14 -4 3 -5 1 -9 -5 -9 -5 0 -11 5 -13
11 -3 9 -22 15 -51 18 -5 1 -5 7 -1 14 4 6 4 9 0 5 -5 -4 -31 9 -58 27 -50 35
-59 36 -131 20 -19 -4 -26 -2 -22 5 3 5 4 10 1 10 -3 0 -7 -3 -7 -7z m134 -21
c30 -13 33 -17 15 -28 -7 -5 -8 -3 -3 6 6 9 2 10 -15 5 -15 -5 -20 -4 -16 4 4
6 3 11 -3 11 -5 0 -12 -4 -15 -9 -4 -5 -16 -4 -31 2 -20 10 -22 13 -7 18 22 8
40 5 75 -9z m-93 -12 c8 -5 11 -10 5 -10 -5 0 -17 5 -25 10 -8 5 -10 10 -5 10
6 0 17 -5 25 -10z m-252 -85 c-3 -3 -18 -8 -34 -11 -21 -3 -25 -2 -14 5 8 5
17 8 21 5 4 -2 11 1 14 7 4 5 10 8 13 5 3 -3 3 -8 0 -11z m437 -3 c-3 -3 -11
0 -18 7 -9 10 -8 11 6 5 10 -3 15 -9 12 -12z"/>
<path d="M2296 1738 c3 -5 10 -6 15 -3 13 9 11 12 -6 12 -8 0 -12 -4 -9 -9z"/>
<path d="M2105 1750 c-28 -8 -27 -8 12 -7 23 0 40 4 37 9 -6 9 -7 9 -49 -2z"/>
<path d="M3112 1673 c-15 -48 -8 -55 8 -8 7 20 10 38 8 41 -3 2 -10 -13 -16
-33z"/>
<path d="M3085 1603 c-4 -10 -9 -49 -10 -88 l-3 -70 12 85 c14 88 14 104 1 73z"/>
<path d="M2068 1553 c7 -3 16 -2 19 1 4 3 -2 6 -13 5 -11 0 -14 -3 -6 -6z"/>
<path d="M2168 1543 c7 -3 16 -2 19 1 4 3 -2 6 -13 5 -11 0 -14 -3 -6 -6z"/>
<path d="M2175 1525 c-5 -2 -22 -6 -37 -9 -15 -3 -36 -20 -48 -36 -18 -25 -19
-29 -4 -23 10 4 15 2 11 -3 -3 -6 4 -11 16 -11 15 -2 18 0 9 6 -11 7 -11 9 2
14 9 4 15 3 15 -1 -1 -4 -1 -13 0 -21 1 -12 3 -12 14 1 16 21 60 28 76 11 14
-15 35 -7 25 9 -5 7 2 9 20 6 26 -5 37 6 14 15 -8 3 -6 6 5 6 9 1 17 -6 17
-14 0 -8 5 -15 11 -15 6 0 9 12 7 27 -3 23 -8 27 -48 30 -25 1 -56 5 -70 7
-14 2 -29 2 -35 1z"/>
<path d="M2285 1450 c-17 -8 -17 -9 7 -7 15 1 24 5 22 9 -3 4 -6 8 -7 7 -1 0
-11 -4 -22 -9z"/>
<path d="M2168 1443 c7 -3 16 -2 19 1 4 3 -2 6 -13 5 -11 0 -14 -3 -6 -6z"/>
<path d="M3017 1435 c-4 -8 -2 -17 3 -20 6 -4 10 3 10 14 0 25 -6 27 -13 6z"/>
<path d="M3055 1360 c-4 -39 -5 -73 -2 -76 2 -3 8 27 11 67 4 39 5 73 3 76 -3
2 -8 -28 -12 -67z"/>
<path d="M2819 1263 c-13 -16 -12 -17 4 -4 16 13 21 21 13 21 -2 0 -10 -8 -17
-17z"/>
<path d="M2603 1235 c0 -8 4 -12 9 -9 5 3 6 10 3 15 -9 13 -12 11 -12 -6z"/>
<path d="M2780 1200 c-9 -6 -10 -10 -3 -10 6 0 15 5 18 10 8 12 4 12 -15 0z"/>
<path d="M2600 1155 c-12 -13 -27 -22 -33 -18 -6 3 -7 1 -4 -4 8 -13 -42 -48
-63 -45 -13 2 -13 2 0 -7 8 -5 19 -7 24 -3 26 16 106 90 106 98 0 8 -7 3 -30
-21z"/>
<path d="M1810 1165 c0 -2 6 -8 13 -14 10 -8 14 -7 14 2 0 8 -6 14 -14 14 -7
0 -13 -1 -13 -2z"/>
<path d="M2204 1121 c4 -6 0 -14 -9 -18 -16 -6 -16 -7 0 -15 9 -6 19 -7 22 -4
4 3 1 6 -7 6 -10 0 -10 3 -1 14 9 11 9 16 0 22 -8 4 -9 3 -5 -5z"/>
<path d="M2029 1118 c-7 -23 -4 -35 7 -35 9 0 11 4 4 12 -5 7 -7 15 -3 18 3 4
3 7 0 7 -4 0 -7 -1 -8 -2z"/>
<path d="M2695 1079 c-4 -6 -5 -12 -2 -15 2 -3 7 2 10 11 7 17 1 20 -8 4z"/>
<path d="M4212 1069 c-11 -11 -25 -18 -31 -14 -7 3 -11 -2 -11 -13 0 -11 -7
-25 -15 -32 -8 -7 -12 -17 -8 -24 4 -6 6 -23 4 -38 -3 -35 8 -70 20 -63 5 4
16 2 25 -3 11 -6 13 -11 5 -16 -6 -4 -11 -2 -11 4 0 6 -4 9 -10 5 -13 -8 -61
6 -54 16 3 5 10 6 16 3 7 -4 8 -2 4 4 -5 8 -13 9 -25 3 -16 -9 -100 14 -176
48 -31 14 -118 41 -121 38 -8 -8 563 -217 593 -217 2 0 3 15 3 34 0 27 -5 36
-21 41 -20 7 -21 12 -17 96 4 85 3 89 -16 89 -30 0 -47 14 -49 38 -1 17 -7 21
-24 19 -12 -2 -25 -6 -29 -10 -4 -4 -13 -2 -20 4 -9 7 -18 4 -32 -12z"/>
<path d="M3022 1030 c0 -19 2 -27 5 -17 2 9 2 25 0 35 -3 9 -5 1 -5 -18z"/>
<path d="M1815 1030 c3 -5 8 -10 11 -10 2 0 4 5 4 10 0 6 -5 10 -11 10 -5 0
-7 -4 -4 -10z"/>
<path d="M3750 1012 c8 -5 26 -13 40 -16 17 -5 20 -4 10 2 -8 5 -26 13 -40 16
-17 5 -20 4 -10 -2z"/>
<path d="M1838 1003 c7 -3 16 -2 19 1 4 3 -2 6 -13 5 -11 0 -14 -3 -6 -6z"/>
<path d="M1908 991 c4 -10 7 -11 10 -3 2 7 8 12 14 12 6 0 8 -7 4 -15 -8 -21
1 -19 13 3 8 16 6 18 -19 18 -21 0 -27 -3 -22 -15z"/>
<path d="M2626 993 c-6 -14 -5 -15 5 -6 7 7 10 15 7 18 -3 3 -9 -2 -12 -12z"/>
<path d="M3011 970 c0 -15 -14 -68 -31 -120 -21 -69 -26 -98 -18 -105 7 -7 9
-6 4 2 -3 6 -3 19 1 29 6 16 7 16 15 -2 7 -17 8 -17 4 3 -2 12 5 55 15 95 11
40 18 84 16 98 l-4 25 -2 -25z"/>
<path d="M1965 970 c-13 -5 -14 -9 -5 -9 8 0 24 4 35 9 13 5 14 9 5 9 -8 0
-24 -4 -35 -9z"/>
<path d="M2010 926 c0 -2 7 -7 16 -10 8 -3 12 -2 9 4 -6 10 -25 14 -25 6z"/>
<path d="M2544 894 c5 -23 2 -25 -19 -20 -13 3 -26 2 -29 -3 -9 -14 23 -22 43
-11 10 5 22 6 26 2 5 -4 4 -1 0 7 -6 11 -4 13 8 8 23 -9 21 -4 -8 21 l-25 22
4 -26z"/>
<path d="M2719 893 c-13 -16 -12 -17 4 -4 16 13 21 21 13 21 -2 0 -10 -8 -17
-17z"/>
<path d="M2598 893 c6 -2 9 -10 6 -15 -4 -7 -2 -8 5 -4 13 9 5 26 -12 25 -9 0
-8 -2 1 -6z"/>
<path d="M2430 870 c0 -5 5 -10 10 -10 6 0 10 5 10 10 0 6 -4 10 -10 10 -5 0
-10 -4 -10 -10z"/>
<path d="M2680 845 c-8 -9 -8 -15 -2 -15 12 0 26 19 19 26 -2 2 -10 -2 -17
-11z"/>
<path d="M2665 810 c-4 -6 -11 -8 -16 -4 -5 3 -8 2 -7 -3 1 -4 -3 -18 -10 -30
-19 -34 -8 -28 22 12 15 19 25 35 22 35 -3 0 -8 -5 -11 -10z"/>
<path d="M2980 735 c-8 -10 -17 -12 -24 -6 -8 7 -16 3 -25 -12 -11 -18 -11
-20 0 -9 20 18 33 15 18 -5 -7 -10 1 -5 19 11 18 17 32 31 32 33 0 7 -8 2 -20
-12z"/>
<path d="M2587 724 c5 -14 3 -16 -12 -11 -15 6 -16 5 -5 -8 7 -8 16 -12 21 -9
12 7 11 31 -1 39 -6 4 -7 -1 -3 -11z"/>
<path d="M2563 675 c0 -8 4 -12 9 -9 5 3 6 10 3 15 -9 13 -12 11 -12 -6z"/>
<path d="M2405 521 c3 -5 -5 -17 -17 -26 l-23 -17 23 7 c22 6 31 -8 13 -20 -6
-3 -9 -14 -8 -25 1 -23 12 -16 12 8 0 9 8 17 17 17 10 0 23 6 29 12 10 10 8
12 -9 8 -25 -4 -41 13 -22 25 8 5 7 9 -5 13 -9 4 -13 3 -10 -2z"/>
<path d="M2213 345 c-10 -8 -13 -15 -6 -15 6 0 14 4 18 10 3 5 12 7 20 3 8 -3
15 -3 15 0 0 13 -30 14 -47 2z"/>
</g>
</svg>
